<svg width="1364" height="356" viewBox="0 0 1364 356" fill="none" xmlns="http://www.w3.org/2000/svg">
<circle cx="1247" cy="201" r="117" fill="#8A25EC" fill-opacity="0.95"/>
<circle cx="1247" cy="201" r="100.512" fill="#E71B7C"/>
<circle cx="1246.68" cy="200.683" r="81.8049" fill="#FF6B00"/>
<circle cx="1246.68" cy="200.683" r="64.6829" fill="#FFD600"/>
<circle cx="1246.68" cy="200.683" r="49.4634" fill="white"/>
<path d="M120 266.4L176 96.4H235.6L153.6 318H85.6L4 96.4H64L120 266.4ZM365.453 321.6C344.12 321.6 324.92 316.933 307.853 307.6C290.786 298 277.32 284.533 267.453 267.2C257.853 249.867 253.053 229.867 253.053 207.2C253.053 184.533 257.986 164.533 267.853 147.2C277.986 129.867 291.72 116.533 309.053 107.2C326.386 97.6 345.72 92.8 367.053 92.8C388.386 92.8 407.72 97.6 425.053 107.2C442.386 116.533 455.986 129.867 465.853 147.2C475.986 164.533 481.053 184.533 481.053 207.2C481.053 229.867 475.853 249.867 465.453 267.2C455.32 284.533 441.453 298 423.853 307.6C406.52 316.933 387.053 321.6 365.453 321.6ZM365.453 272.8C375.586 272.8 385.053 270.4 393.853 265.6C402.92 260.533 410.12 253.067 415.453 243.2C420.786 233.333 423.453 221.333 423.453 207.2C423.453 186.133 417.853 170 406.653 158.8C395.72 147.333 382.253 141.6 366.253 141.6C350.253 141.6 336.786 147.333 325.853 158.8C315.186 170 309.853 186.133 309.853 207.2C309.853 228.267 315.053 244.533 325.453 256C336.12 267.2 349.453 272.8 365.453 272.8ZM507.731 207.2C507.731 184.267 512.398 164.267 521.731 147.2C531.065 129.867 543.998 116.533 560.531 107.2C577.065 97.6 595.998 92.8 617.331 92.8C644.798 92.8 667.465 99.7333 685.331 113.6C703.465 127.2 715.598 146.4 721.731 171.2H661.331C658.131 161.6 652.665 154.133 644.931 148.8C637.465 143.2 628.131 140.4 616.931 140.4C600.931 140.4 588.265 146.267 578.931 158C569.598 169.467 564.931 185.867 564.931 207.2C564.931 228.267 569.598 244.667 578.931 256.4C588.265 267.867 600.931 273.6 616.931 273.6C639.598 273.6 654.398 263.467 661.331 243.2H721.731C715.598 267.2 703.465 286.267 685.331 300.4C667.198 314.533 644.531 321.6 617.331 321.6C595.998 321.6 577.065 316.933 560.531 307.6C543.998 298 531.065 284.667 521.731 267.6C512.398 250.267 507.731 230.133 507.731 207.2ZM748.356 206.4C748.356 184 752.756 164.133 761.556 146.8C770.623 129.467 782.756 116.133 797.956 106.8C813.423 97.4667 830.623 92.8 849.556 92.8C866.09 92.8 880.49 96.1333 892.756 102.8C905.29 109.467 915.29 117.867 922.756 128V96.4H979.156V318H922.756V285.6C915.556 296 905.556 304.667 892.756 311.6C880.223 318.267 865.69 321.6 849.156 321.6C830.49 321.6 813.423 316.8 797.956 307.2C782.756 297.6 770.623 284.133 761.556 266.8C752.756 249.2 748.356 229.067 748.356 206.4ZM922.756 207.2C922.756 193.6 920.09 182 914.756 172.4C909.423 162.533 902.223 155.067 893.156 150C884.09 144.667 874.356 142 863.956 142C853.556 142 843.956 144.533 835.156 149.6C826.356 154.667 819.156 162.133 813.556 172C808.223 181.6 805.556 193.067 805.556 206.4C805.556 219.733 808.223 231.467 813.556 241.6C819.156 251.467 826.356 259.067 835.156 264.4C844.223 269.733 853.823 272.4 863.956 272.4C874.356 272.4 884.09 269.867 893.156 264.8C902.223 259.467 909.423 252 914.756 242.4C920.09 232.533 922.756 220.8 922.756 207.2ZM1089.85 22V318H1033.85V22H1089.85Z" fill="url(#paint0_linear_9_99)"/>
<defs>
<linearGradient id="paint0_linear_9_99" x1="565" y1="0" x2="565" y2="356" gradientUnits="userSpaceOnUse">
<stop stop-color="#C390FF"/>
<stop offset="0.75" stop-color="#9030ED"/>
</linearGradient>
</defs>
</svg>
